<?xml version="1.0" encoding="UTF-8"?>
<svg xmlns="http://www.w3.org/2000/svg" xmlns:xlink="http://www.w3.org/1999/xlink" width="64pt" height="64pt" viewBox="0 0 64 64" version="1.1">
<g id="surface10252732">
<path style=" stroke:none;fill-rule:nonzero;fill:rgb(100%,100%,100%);fill-opacity:1;" d="M 12.160156 51.839844 L 12.160156 12.160156 L 51.839844 12.160156 L 51.839844 51.839844 Z M 12.160156 51.839844 "/>
<path style=" stroke:none;fill-rule:nonzero;fill:rgb(0%,0%,0%);fill-opacity:1;" d="M 16.800781 11.199219 C 13.710938 11.199219 11.199219 13.710938 11.199219 16.800781 L 11.199219 47.199219 C 11.199219 50.289062 13.710938 52.800781 16.800781 52.800781 L 47.199219 52.800781 C 50.289062 52.800781 52.800781 50.289062 52.800781 47.199219 L 52.800781 16.800781 C 52.800781 13.710938 50.289062 11.199219 47.199219 11.199219 Z M 16.800781 12.800781 L 47.199219 12.800781 C 49.40625 12.800781 51.199219 14.59375 51.199219 16.800781 L 51.199219 47.199219 C 51.199219 49.40625 49.40625 51.199219 47.199219 51.199219 L 16.800781 51.199219 C 14.59375 51.199219 12.800781 49.40625 12.800781 47.199219 L 12.800781 16.800781 C 12.800781 14.59375 14.59375 12.800781 16.800781 12.800781 Z M 44.800781 16.800781 C 43.476562 16.800781 42.398438 17.878906 42.398438 19.199219 C 42.398438 20.523438 43.476562 21.601562 44.800781 21.601562 C 46.121094 21.601562 47.199219 20.523438 47.199219 19.199219 C 47.199219 17.878906 46.121094 16.800781 44.800781 16.800781 Z M 44.800781 18.023438 C 45.445312 18.023438 45.976562 18.554688 45.976562 19.199219 C 45.976562 19.847656 45.445312 20.375 44.800781 20.375 C 44.152344 20.375 43.625 19.847656 43.625 19.199219 C 43.625 18.554688 44.152344 18.023438 44.800781 18.023438 Z M 32 20.800781 C 25.824219 20.800781 20.800781 25.824219 20.800781 32 C 20.800781 38.175781 25.824219 43.199219 32 43.199219 C 38.175781 43.199219 43.199219 38.175781 43.199219 32 C 43.199219 25.824219 38.175781 20.800781 32 20.800781 Z M 32 22.398438 C 37.292969 22.398438 41.601562 26.707031 41.601562 32 C 41.601562 37.292969 37.292969 41.601562 32 41.601562 C 26.707031 41.601562 22.398438 37.292969 22.398438 32 C 22.398438 26.707031 26.707031 22.398438 32 22.398438 Z M 32 24 C 27.585938 24 24 27.585938 24 32 C 24 36.414062 27.585938 40 32 40 C 36.414062 40 40 36.414062 40 32 C 40 27.585938 36.414062 24 32 24 Z M 32 25.601562 C 35.527344 25.601562 38.398438 28.472656 38.398438 32 C 38.398438 35.527344 35.527344 38.398438 32 38.398438 C 28.472656 38.398438 25.601562 35.527344 25.601562 32 C 25.601562 28.472656 28.472656 25.601562 32 25.601562 Z M 16 45.601562 C 15.558594 45.601562 15.199219 45.960938 15.199219 46.398438 L 15.199219 48 C 15.199219 48.441406 15.558594 48.800781 16 48.800781 C 16.441406 48.800781 16.800781 48.441406 16.800781 48 L 16.800781 46.398438 C 16.800781 45.960938 16.441406 45.601562 16 45.601562 Z M 20 45.601562 C 19.558594 45.601562 19.199219 45.960938 19.199219 46.398438 L 19.199219 48 C 19.199219 48.441406 19.558594 48.800781 20 48.800781 C 20.441406 48.800781 20.800781 48.441406 20.800781 48 L 20.800781 46.398438 C 20.800781 45.960938 20.441406 45.601562 20 45.601562 Z M 24 45.601562 C 23.558594 45.601562 23.199219 45.960938 23.199219 46.398438 L 23.199219 48 C 23.199219 48.441406 23.558594 48.800781 24 48.800781 C 24.441406 48.800781 24.800781 48.441406 24.800781 48 L 24.800781 46.398438 C 24.800781 45.960938 24.441406 45.601562 24 45.601562 Z M 28 45.601562 C 27.558594 45.601562 27.199219 45.960938 27.199219 46.398438 L 27.199219 48 C 27.199219 48.441406 27.558594 48.800781 28 48.800781 C 28.441406 48.800781 28.800781 48.441406 28.800781 48 L 28.800781 46.398438 C 28.800781 45.960938 28.441406 45.601562 28 45.601562 Z M 32 45.601562 C 31.558594 45.601562 31.199219 45.960938 31.199219 46.398438 L 31.199219 48 C 31.199219 48.441406 31.558594 48.800781 32 48.800781 C 32.441406 48.800781 32.800781 48.441406 32.800781 48 L 32.800781 46.398438 C 32.800781 45.960938 32.441406 45.601562 32 45.601562 Z M 36 45.601562 C 35.558594 45.601562 35.199219 45.960938 35.199219 46.398438 L 35.199219 48 C 35.199219 48.441406 35.558594 48.800781 36 48.800781 C 36.441406 48.800781 36.800781 48.441406 36.800781 48 L 36.800781 46.398438 C 36.800781 45.960938 36.441406 45.601562 36 45.601562 Z M 40 45.601562 C 39.558594 45.601562 39.199219 45.960938 39.199219 46.398438 L 39.199219 48 C 39.199219 48.441406 39.558594 48.800781 40 48.800781 C 40.441406 48.800781 40.800781 48.441406 40.800781 48 L 40.800781 46.398438 C 40.800781 45.960938 40.441406 45.601562 40 45.601562 Z M 44 45.601562 C 43.558594 45.601562 43.199219 45.960938 43.199219 46.398438 L 43.199219 48 C 43.199219 48.441406 43.558594 48.800781 44 48.800781 C 44.441406 48.800781 44.800781 48.441406 44.800781 48 L 44.800781 46.398438 C 44.800781 45.960938 44.441406 45.601562 44 45.601562 Z M 48 45.601562 C 47.558594 45.601562 47.199219 45.960938 47.199219 46.398438 L 47.199219 48 C 47.199219 48.441406 47.558594 48.800781 48 48.800781 C 48.441406 48.800781 48.800781 48.441406 48.800781 48 L 48.800781 46.398438 C 48.800781 45.960938 48.441406 45.601562 48 45.601562 Z M 48 45.601562 "/>
</g>
</svg>
